<?xml version="1.0" encoding="UTF-8"?>
<svg id="Capa_1" xmlns="http://www.w3.org/2000/svg" xmlns:xlink="http://www.w3.org/1999/xlink" version="1.1" viewBox="0 0 800 800">
  <!-- Generator: Adobe Illustrator 29.2.1, SVG Export Plug-In . SVG Version: 2.1.0 Build 116)  -->
  <defs>
    <style>
      .st0 {
        fill: #292929;
      }

      .st1 {
        fill: #fff;
      }
    </style>
  </defs>
  <path class="st0" d="M609.1,49.1H190.9c-78.3,0-141.8,63.4-141.8,141.8v418.4c0,78.3,63.4,141.7,141.8,141.7h418.4c78.3,0,141.8-63.4,141.8-141.8V190.9c0-78.3-63.5-141.8-141.9-141.8h0Z"/>
  <path class="st1" d="M397,210.3l14.2-24.6c8.8-15.4,28.3-20.5,43.7-11.8,15.4,8.8,20.5,28.3,11.8,43.7l-136.9,237h99c32.1,0,50.1,37.7,36.1,63.9H174.5c-17.7,0-31.9-14.2-31.9-31.9s14.2-31.9,31.9-31.9h81.4l104.2-180.6-32.5-56.5c-8.8-15.4-3.6-34.7,11.8-43.7,15.4-8.8,34.7-3.6,43.7,11.8l13.9,24.7h0ZM273.9,551.5l-30.7,53.3c-8.8,15.4-28.3,20.5-43.7,11.8s-20.5-28.3-11.8-43.7l22.8-39.5c25.8-8,46.8-1.8,63.3,18.2h0ZM538.3,454.9h83.1c17.7,0,31.9,14.2,31.9,31.9s-14.2,31.9-31.9,31.9h-46.1l31.1,54c8.8,15.4,3.6,34.7-11.8,43.7-15.4,8.8-34.7,3.6-43.7-11.8-52.5-91-91.8-159-118-204.4-26.8-46.1-7.6-92.5,11.2-108.2,21,36,52.3,90.3,94.1,162.7h0Z"/>
</svg>