<?xml version="1.0" encoding="UTF-8"?>
<svg id="Layer_1" data-name="Layer 1" xmlns="http://www.w3.org/2000/svg" version="1.1" viewBox="0 0 512 512">
  <defs>
    <style>
      .cls-1 {
        fill: #222;
      }

      .cls-1, .cls-2 {
        stroke-width: 0px;
      }

      .cls-2 {
        fill: #fff;
      }
    </style>
  </defs>
  <rect class="cls-1" width="512" height="512"/>
  <g>
    <path class="cls-2" d="M195.09,167.74c-10.87-5.62-23.3-8.43-37.29-8.43h-75.97v193.37h44.48v-61.05h32.87c13.81,0,26.06-2.85,36.74-8.56,10.68-5.71,19.01-13.54,25-23.48,5.98-9.94,8.98-21.36,8.98-34.25s-3.09-24.31-9.25-34.25c-6.17-9.95-14.69-17.72-25.55-23.34ZM177.13,243.71c-4.79,4.7-11.14,7.04-19.06,7.04h-31.77v-50.83h30.39c8.29,0,14.96,2.35,20.03,7.04,5.06,4.7,7.6,10.82,7.6,18.37s-2.4,13.67-7.18,18.37Z"/>
    <path class="cls-2" d="M343.71,246.61v34.25h43.94c-.63,5.98-2.46,11.33-5.54,16.02-3.87,5.9-9.12,10.5-15.75,13.81s-14.27,4.97-22.93,4.97c-11.42,0-21.46-2.58-30.11-7.73-8.66-5.15-15.29-12.2-19.89-21.13-4.61-8.93-6.91-19.2-6.91-30.8s2.39-21.87,7.18-30.8c4.79-8.93,11.37-15.88,19.75-20.86,8.38-4.97,18-7.46,28.87-7.46,5.52,0,10.95.97,16.3,2.9,5.34,1.93,10.26,4.65,14.78,8.15,4.51,3.5,8.15,7.46,10.91,11.88l36.74-22.1c-4.97-8.1-11.23-15.28-18.78-21.55-7.55-6.26-16.35-11.19-26.38-14.78-10.04-3.59-21.23-5.39-33.56-5.39-19.89,0-37.43,4.28-52.62,12.84-15.19,8.56-27.12,20.35-35.77,35.36-8.66,15.01-12.98,32.28-12.98,51.8s4.33,36.79,12.98,51.8c8.65,15.01,20.58,26.8,35.77,35.36,15.19,8.56,32.74,12.85,52.62,12.85,17.31,0,32.5-3.31,45.58-9.94,13.07-6.63,23.39-16.44,30.94-29.42,7.02-12.08,10.78-26.67,11.27-43.77l.06-.02v-26.24h-86.46Z"/>
  </g>
</svg>