<?xml version="1.0" encoding="UTF-8"?>
<svg id="Layer_1" data-name="Layer 1" xmlns="http://www.w3.org/2000/svg" version="1.1" viewBox="0 0 24 24">
  <defs>
    <style>
      .cls-1 {
        fill: #888;
        stroke-width: 0px;
      }
    </style>
  </defs>
  <path class="cls-1" d="M15.9,9.8l-8,8.1c-.1.1-.2.2-.4.2-.1,0-.3,0-.4-.2-.1-.1-.2-.2-.2-.4,0-.1,0-.3.2-.4l8-8.1h-4.7c-.1,0-.3,0-.4-.2-.1-.1-.2-.2-.2-.4s0-.3.2-.4c.1-.1.2-.2.4-.2h5.9c.2,0,.3,0,.5.2.1.1.2.3.2.5v5.9c0,.1,0,.3-.2.4-.1.1-.2.2-.4.2s-.3,0-.4-.2c-.1-.1-.2-.2-.2-.4v-4.7Z"/>
</svg>