<svg viewBox="0 0 512 512" xmlns="http://www.w3.org/2000/svg"><rect fill="#222" height="458.5" rx="50" transform="matrix(.98768834 -.15643447 .15643447 .98768834 -36.9 43.2)" width="458.5" x="26.7" y="26.7"/><g fill="#fff"><path d="m205.6 175.4c-8.7-4.5-18.6-6.7-29.8-6.7h-60.8v154.7h35.6v-48.8h26.3c11 0 20.8-2.3 29.4-6.8 8.5-4.6 15.2-10.8 20-18.8s7.2-17.1 7.2-27.4-2.5-19.4-7.4-27.4-11.8-14.2-20.4-18.7zm-14.4 60.8c-3.8 3.8-8.9 5.6-15.2 5.6h-25.4v-40.7h24.3c6.6 0 12 1.9 16 5.6 4 3.8 6.1 8.7 6.1 14.7s-1.9 10.9-5.7 14.7h-.1z"/><path d="m327.6 238.5v27.4h35.2c-.5 4.8-2 9.1-4.4 12.8-3.1 4.7-7.3 8.4-12.6 11s-11.4 4-18.3 4-17.2-2.1-24.1-6.2-12.2-9.8-15.9-16.9-5.5-15.4-5.5-24.6 1.9-17.5 5.7-24.6 9.1-12.7 15.8-16.7 14.4-6 23.1-6 8.8.8 13 2.3c4.3 1.5 8.2 3.7 11.8 6.5s6.5 6 8.7 9.5l29.4-17.7c-4-6.5-9-12.2-15-17.2s-13.1-9-21.1-11.8c-8-2.9-17-4.3-26.8-4.3-15.9 0-29.9 3.4-42.1 10.3-12.2 6.8-21.7 16.3-28.6 28.3s-10.4 25.8-10.4 41.4 3.5 29.4 10.4 41.4 16.5 21.4 28.6 28.3c12.2 6.8 26.2 10.3 42.1 10.3s26-2.6 36.5-8c10.5-5.3 18.7-13.2 24.8-23.5 5.6-9.7 8.6-21.3 9-35v-21z"/></g></svg>