<?xml version="1.0" encoding="UTF-8"?>
<svg id="Layer_1" data-name="Layer 1" xmlns="http://www.w3.org/2000/svg" version="1.1" viewBox="0 0 512 512">
  <defs>
    <style>
      .cls-1 {
        fill: #222;
      }

      .cls-1, .cls-2 {
        stroke-width: 0px;
      }

      .cls-2 {
        fill: #fff;
      }
    </style>
  </defs>
  <rect class="cls-1" x="26.7" y="26.7" width="458.5" height="458.5" rx="50" ry="50" transform="translate(-36.9 43.2) rotate(-9)"/>
  <g>
    <path class="cls-2" d="M205.7,175.4c-8.7-4.5-18.6-6.7-29.8-6.7h-60.8v154.7h35.6v-48.8h26.3c11,0,20.8-2.3,29.4-6.8,8.5-4.6,15.2-10.8,20-18.8,4.8-8,7.2-17.1,7.2-27.4s-2.5-19.4-7.4-27.4c-4.9-8-11.8-14.2-20.4-18.7h0ZM191.3,236.2c-3.8,3.8-8.9,5.6-15.2,5.6h-25.4v-40.7h24.3c6.6,0,12,1.9,16,5.6,4,3.8,6.1,8.7,6.1,14.7s-1.9,10.9-5.7,14.7h0Z"/>
    <path class="cls-2" d="M327.7,238.5v27.4h35.2c-.5,4.8-2,9.1-4.4,12.8-3.1,4.7-7.3,8.4-12.6,11s-11.4,4-18.3,4-17.2-2.1-24.1-6.2c-6.9-4.1-12.2-9.8-15.9-16.9-3.7-7.1-5.5-15.4-5.5-24.6s1.9-17.5,5.7-24.6c3.8-7.1,9.1-12.7,15.8-16.7,6.7-4,14.4-6,23.1-6s8.8.8,13,2.3c4.3,1.5,8.2,3.7,11.8,6.5,3.6,2.8,6.5,6,8.7,9.5l29.4-17.7c-4-6.5-9-12.2-15-17.2-6-5-13.1-9-21.1-11.8-8-2.9-17-4.3-26.8-4.3-15.9,0-29.9,3.4-42.1,10.3-12.2,6.8-21.7,16.3-28.6,28.3-6.9,12-10.4,25.8-10.4,41.4s3.5,29.4,10.4,41.4c6.9,12,16.5,21.4,28.6,28.3,12.2,6.8,26.2,10.3,42.1,10.3s26-2.6,36.5-8c10.5-5.3,18.7-13.2,24.8-23.5,5.6-9.7,8.6-21.3,9-35h0v-21h-69.2Z"/>
  </g>
</svg>