<?xml version="1.0" encoding="UTF-8"?>
<svg id="Layer_1" data-name="Layer 1" xmlns="http://www.w3.org/2000/svg" version="1.1" viewBox="0 0 24 24">
  <defs>
    <style>
      .cls-1 {
        fill: #212529;
        stroke-width: 0px;
      }
    </style>
  </defs>
  <g>
    <path class="cls-1" d="M3.5,7h17c.28,0,.5.22.5.5h0c0,.28-.22.5-.5.5H3.5c-.28,0-.5-.22-.5-.5h0c0-.28.22-.5.5-.5Z"/>
    <path class="cls-1" d="M20.5,7H3.5c-.28,0-.5.22-.5.5s.22.5.5.5h17c.28,0,.5-.22.5-.5s-.22-.5-.5-.5h0Z"/>
  </g>
  <g>
    <path class="cls-1" d="M3.5,12h17c.28,0,.5.22.5.5h0c0,.28-.22.5-.5.5H3.5c-.28,0-.5-.22-.5-.5h0c0-.28.22-.5.5-.5Z"/>
    <path class="cls-1" d="M20.5,12H3.5c-.28,0-.5.22-.5.5s.22.5.5.5h17c.28,0,.5-.22.5-.5s-.22-.5-.5-.5h0Z"/>
  </g>
  <g>
    <path class="cls-1" d="M3.5,17h17c.28,0,.5.22.5.5h0c0,.28-.22.5-.5.5H3.5c-.28,0-.5-.22-.5-.5h0c0-.28.22-.5.5-.5Z"/>
    <path class="cls-1" d="M20.5,17H3.5c-.28,0-.5.22-.5.5s.22.5.5.5h17c.28,0,.5-.22.5-.5s-.22-.5-.5-.5h0Z"/>
  </g>
</svg>